<!-- SVG Generated by https://getwaves.io/ and whitespace removal
by this Codepen (which is really quite simple, actually):
https://jsfiddle.net/knLbjc9a/4/ -->

<svg xmlns="http://www.w3.org/2000/svg"
     preserveAspectRatio="none"
     viewBox="0 128 1440 192"
     style="background-color:white; overflow:hidden;">
    <path fill="#F3F4F5" fill-opacity="1"
          d="M0,192L60,192C120,192,240,192,360,208C480,224,600,256,720,256C840,
          256,960,224,1080,197.3C1200,171,1320,149,1380,138.7L1440,128L1440,320L1380,
          320C1320,320,1200,320,1080,320C960,320,840,320,720,320C600,320,480,
          320,360,320C240,320,120,320,60,320L0,320Z"/>
</svg>

